
<svg id="SOLID" viewBox="0 0 128 128" xmlns="http://www.w3.org/2000/svg">
    <g>
        <path fill="white" d="m98.214 35.596h-68.428c-3.309 0-6 2.691-6 6v44.809c0 3.309 2.691 6 6 6h68.428c3.309 0 6-2.691 6-6v-44.809c0-3.309-2.692-6-6-6zm-34.59 47.93c-1.104 0-2-.896-2-2 0-7.626-6.204-13.83-13.83-13.83s-13.831 6.204-13.831 13.83c0 1.104-.896 2-2 2s-2-.896-2-2c0-7.715 4.935-14.282 11.807-16.76-3.019-1.974-5.022-5.379-5.022-9.248 0-6.09 4.955-11.045 11.046-11.045s11.046 4.955 11.046 11.045c0 3.869-2.003 7.273-5.022 9.248 6.872 2.478 11.806 9.045 11.806 16.76 0 1.105-.896 2-2 2zm32.414-11.346h-23.369c-1.104 0-2-.896-2-2s.896-2 2-2h23.368c1.104 0 2 .896 2 2s-.895 2-1.999 2zm0-12.36h-23.369c-1.104 0-2-.896-2-2s.896-2 2-2h23.368c1.104 0 2 .896 2 2s-.895 2-1.999 2z"></path>
        <path fill="rgba(0,0,0,0)" d="m47.793 48.474c-3.885 0-7.046 3.16-7.046 7.045 0 3.886 3.161 7.047 7.046 7.047s7.046-3.161 7.046-7.047c0-3.885-3.16-7.045-7.046-7.045z"></path>
    </g>
</svg>